<?xml version="1.0" encoding="utf-8"?><!DOCTYPE svg PUBLIC "-//W3C//DTD SVG 1.1//EN" "http://www.w3.org/Graphics/SVG/1.1/DTD/svg11.dtd"><svg version="1.1" id="Livello_1" xmlns="http://www.w3.org/2000/svg" xmlns:xlink="http://www.w3.org/1999/xlink" x="0px" y="0px" width="512px" height="512px" viewBox="0 0 512 512" enable-background="new 0 0 512 512" xml:space="preserve"><rect width="512" height="512"/><g><path fill="#FFFFFF" d="M156.504,117.356c-1.095-20.572-2.405-45.529-2.405-63.686h-0.438	c-5.255,17.07-11.164,35.674-18.603,56.024l-26.042,71.563H94.573l-24.075-70.253c-7.002-21.01-12.686-39.827-16.848-57.333h-0.437	c-0.436,18.38-1.531,42.891-2.85,65.209l-3.938,63.25H28.267L38.548,34.63h24.297l25.162,71.339	c6.13,18.167,10.941,34.366,14.879,49.681h0.444c3.939-14.879,9.187-31.077,15.752-49.681L145.35,34.63h24.288l9.195,147.499	h-18.827L156.504,117.356z"/><path fill="#FFFFFF" d="M216.118,76.212l22.98,62.59c2.628,7.003,5.253,15.315,7.002,21.659h0.437	c1.969-6.344,4.161-14.442,6.789-22.095l21.007-62.154h20.354l-28.886,75.5c-13.794,36.325-23.203,54.707-36.334,66.305	c-9.622,8.1-18.82,11.387-23.628,12.261l-4.82-15.976c4.82-1.531,11.163-4.597,16.855-9.417	c5.248-4.152,11.593-11.592,16.19-21.446c0.871-1.968,1.53-3.501,1.53-4.587c0-1.097-0.437-2.629-1.53-5.034L195.11,76.212H216.118	z"/><path fill="#FFFFFF" d="M56.056,398.493l-15.315,46.393H21.042l50.331-147.5h22.764l50.332,147.5h-20.351l-15.761-46.393H56.056z	 M104.64,383.614L89.975,341.15c-3.278-9.622-5.47-18.382-7.654-26.916h-0.444c-2.182,8.534-4.374,17.729-7.44,26.701	l-14.442,42.679H104.64z"/><path fill="#FFFFFF" d="M164.897,373.546c0-13.57-0.438-24.512-0.874-34.578h17.072l1.087,18.157h0.444	c7.654-12.911,20.351-20.35,37.636-20.35c25.828,0,45.082,21.669,45.082,53.619c0,38.078-23.414,56.896-48.362,56.896	c-14.005,0-26.265-6.13-32.609-16.634h-0.438v57.557h-19.039V373.546z M183.937,401.771c0,2.853,0.223,5.473,0.875,7.878	c3.5,13.355,15.101,22.54,28.892,22.54c20.352,0,32.164-16.625,32.164-40.921c0-21.009-11.153-39.176-31.513-39.176	c-13.132,0-25.606,9.193-29.107,23.638c-0.649,2.405-1.31,5.255-1.31,7.66V401.771z"/><path fill="#FFFFFF" d="M289.481,373.546c0-13.57-0.438-24.512-0.875-34.578h17.072l1.094,18.157h0.438	c7.653-12.911,20.351-20.35,37.636-20.35c25.828,0,45.08,21.669,45.08,53.619c0,38.078-23.413,56.896-48.359,56.896	c-14.006,0-26.266-6.13-32.607-16.634h-0.437v57.557h-19.041V373.546z M308.522,401.771c0,2.853,0.223,5.473,0.87,7.878	c3.503,13.355,15.103,22.54,28.888,22.54c20.356,0,32.171-16.625,32.171-40.921c0-21.009-11.164-39.176-31.514-39.176	c-13.132,0-25.604,9.193-29.107,23.638c-0.65,2.405-1.308,5.255-1.308,7.66V401.771z"/></g></svg>